inDegrees=yes
name=ik_MT_2026-09-03_14h52_01210270-000-000_orientations
DataType=double
version=3
OpenSimVersion=4.5
endheader
time	pelvis_tilt	pelvis_list	pelvis_rotation	pelvis_tx	pelvis_ty	pelvis_tz	hip_flexion_r	hip_adduction_r	hip_rotation_r	knee_angle_r	knee_angle_r_beta	ankle_angle_r	subtalar_angle_r	mtp_angle_r	hip_flexion_l	hip_adduction_l	hip_rotation_l	knee_angle_l	knee_angle_l_beta	ankle_angle_l	subtalar_angle_l	mtp_angle_l	lumbar_extension	lumbar_bending	lumbar_rotation	arm_flex_r	arm_add_r	arm_rot_r	elbow_flex_r	pro_sup_r	wrist_flex_r	wrist_dev_r	arm_flex_l	arm_add_l	arm_rot_l	elbow_flex_l	pro_sup_l	wrist_flex_l	wrist_dev_l
152.725	35.95761275586239	-7.613870929238307	-240.7867859118307	0	0.9399999999999999	0	-962.9811622856229	23.73158866925074	-1573.395139859899	-111.1529495863738	-1.939984943585491	98.01721754305301	0	0	27.1772428664098	-20.8162193049446	2737.806262987256	-3.719522382579738	-0.0649179121776406	-1.503910937741372	0	0	89.98843159857286	89.9977280390216	89.98843228651556	89.99648508947058	89.99017377724081	89.99648511090987	41.40392362797211	45.00000025534055	0	0	89.99666096201004	-119.9742285001284	-89.99610753931155	0.4855262677949296	45.00000025534055	0	0
152.75	36.19616552320657	-7.961736091340131	-240.7230489698088	0	0.9399999999999999	0	-965.6021088355891	17.62189431477589	-1577.631698937905	-109.8604166826349	-1.917425988724885	93.86739332834377	0	0	29.28602172779744	-19.66272040226678	2739.134357781776	-4.868245159105822	-0.0849669068206718	-0.9398108831884917	0	0	89.98846604831883	89.99772965905585	89.98846673288378	89.99648250221453	89.99030906062438	89.99648251917765	41.7868949362478	45.00000025534055	0	0	89.9966605843386	-119.9752964350993	-89.99611564121881	0.7015443362379721	45.00000025534055	0	0
152.775	36.77155104480013	-8.281029791148985	-240.6334532349331	0	0.9399999999999999	0	-966.7381580919445	12.11621446636485	-1583.577351128943	-107.6509409548148	-1.878863362531527	83.26171094537457	0	0	31.50589972188721	-18.71879461880782	2740.168856655153	-5.412597952298793	-0.09446765535431692	0.1057623284110768	0	0	89.98862837617212	89.99772966560668	89.98862892664435	89.99647574970723	89.99050085223924	89.99647575686699	42.50753371580988	45.00000025534055	0	0	89.99666091422145	-119.976675551692	-89.99611710555121	1.179853488173692	45.00000025534055	0	0
152.8	37.6612806853809	-8.627012525250585	-240.5085650758471	0	0.9399999999999999	0	-969.4621480347869	6.507939514906043	-1590.162716729926	-102.8939086813288	-1.795837486735564	71.07073759720534	0	0	33.26346695051095	-18.35534549692534	2741.350918292729	-4.768470300096722	-0.08322550702024989	1.672298693096881	0	0	89.98901376002108	89.99773330833146	89.98901335013259	89.99646707479604	89.99075454214254	89.99646708621178	43.58224470196162	45.00000025534055	0	0	89.99666368441561	-119.978286737512	-89.99611659689779	2.003056973639481	45.00000025534055	0	0
152.825	38.56853624104446	-9.022444102110072	-240.3415740936869	0	0.9399999999999999	0	-970.8023974758345	4.77593239865209	-1593.092363289303	-99.1234240787165	-1.73003011602423	64.93683681879692	0	0	34.14543170998335	-18.63740654402271	2742.37118496081	-2.489594771659905	-0.04345162580590176	3.690461987202719	0	0	89.98930267099026	89.99774132476162	89.98930417045993	89.9964551952954	89.99101764081198	89.99645520676124	44.62176274330304	45.00000025534055	0	0	89.99666436353559	-119.9795228455217	-89.99611604912776	2.992307689590018	45.00000025534055	0	0
152.85	39.1833509531649	-9.501267741607602	-240.1376267356115	0	0.9399999999999999	0	-970.9460436156198	6.492450534481127	-1593.424831976933	-97.63676218783014	-1.704082971164338	61.46134314287905	0	0	33.88210388848885	-19.13695223867255	2742.164181053974	1.760846474182292	0.03073256859661433	6.152702193863679	0	0	89.98941105897319	89.99775409914801	89.98941174477098	89.99644196588923	89.99123429573892	89.99644197411364	45.41101460200399	45.00000025534055	0	0	89.99666077870043	-119.9804068318959	-89.99611990755116	3.821968109771178	45.00000025534055	0	0
152.875	39.49559894188135	-10.06055697649017	-240.008073411854	0	0.9399999999999999	0	-966.4817697460461	10.2897417097559	-1591.563871263153	-100.2004094426595	-1.748827056620825	63.76182089587365	0	0	32.51238752931126	-19.47444479670232	2740.786781275314	7.929474548168269	0.138395438818626	9.125031513700087	0	0	89.98937281740645	89.99776664235424	89.98937344385611	89.99643614543375	89.99138257555897	89.99643614818153	45.93060270318697	45.00000025534055	0	0	89.99665955414788	-119.980929179867	-89.99613602971651	4.487678219328012	45.00000025534055	0	0
152.9	39.67954757431804	-10.76079618104042	-239.7360196672994	0	0.9399999999999999	0	-960.0562224599998	17.89394892732139	-1586.98276733748	-105.698947953529	-1.844794657683203	71.49868744581191	0	0	29.35728553676513	-19.86983198311211	2738.593828341702	16.34150702229149	0.285213102276761	11.42380330874831	0	0	89.98938378924517	89.99777074062547	89.98938410083311	89.99642088458081	89.99154210391634	89.99642088107674	46.37731730184104	45.00000025534055	0	0	89.99664875057749	-119.9813598683529	-89.99614942103257	5.18447727656106	45.00000025534055	0	0
152.925	40.60069258181993	-11.45331293809373	-239.5837388674918	0	0.9399999999999999	0	-956.7339787826129	20.57629094192701	-1585.664479379193	-108.3821681033368	-1.891625683853205	74.36725509662638	0	0	24.0877971136852	-20.88856315698945	2735.517035612745	27.42462932594673	0.4786500778767636	12.44491387708505	0	0	89.9898967173863	89.99777477324365	89.98989807081345	89.99641234334001	89.99179668084381	89.99641233331202	47.570225016465	45.00000025534055	0	0	89.99665363463335	-119.9823449698552	-89.99616692630819	6.431287101177816	45.00000025534055	0	0
152.95	41.75986647025941	-12.04481667981503	-239.4887337240018	0	0.9399999999999999	0	-951.7592821592873	24.71995577964652	-1583.661097396477	-112.554826997609	-1.96445232012088	79.0131920271796	0	0	18.15325888005922	-21.4567652952125	2733.414634706136	37.93457953449654	0.6620833132366224	9.850202199599792	0	0	89.99063827876449	89.99777152272745	89.9906388875927	89.99640485641804	89.99206803055206	89.9964048452693	49.00475002508502	45.00000025534055	0	0	89.99666299541906	-119.9834763193244	-89.99617890839365	7.77974885687004	45.00000025534055	0	0
152.975	42.14090574423917	-12.47137354891365	-239.4776053793007	0	0.9399999999999999	0	-946.7229982623261	29.65915164065178	-1581.785722299669	-117.5857179010892	-2.052257930695242	83.25938530943471	0	0	11.75976199644429	-21.63871764892107	2733.068767940407	47.50812180762976	0.8291731469816593	4.816509794833669	0	0	89.99092960101635	89.99777096699357	89.99093040422279	89.99640575973882	89.99218953039254	89.99640574623078	49.54659781828383	45.00000025534055	0	0	89.99666960539004	-119.9838339827699	-89.99619759924568	8.409870289275785	45.00000025534055	0	0
153	42.69103171004136	-12.4586392050818	-239.43710854805	0	0.9399999999999999	0	-945.2185310196602	29.68792223291515	-1582.986459256902	-118.3835792147328	-2.066183237592611	82.80558052374371	0	0	6.87228561139024	-22.68399585393531	2734.032121647529	55.35428458280165	0.9661145210558245	0.04822292007175093	0	0	89.99106602023947	89.99777741739354	89.99106651033664	89.9964022672679	89.99226279895974	89.99640225565103	50.09908914316325	45.00000025534055	0	0	89.99667346199631	-119.9841886986407	-89.99619174927336	8.825777619107404	45.00000025534055	0	0
153.025	42.94652747789799	-12.52805137996982	-239.3273488145836	0	0.9399999999999999	0	-948.2423467441829	25.25780512249599	-1585.587130981771	-114.587911576761	-1.999936339998607	78.24835786630655	0	0	4.088680647459582	-23.81271059922992	2735.574211561283	59.91197877706642	1.045661291044775	-4.613729226407682	0	0	89.99106421856074	89.99777837665009	89.99106467100684	89.99639415998637	89.99231224661938	89.99639414737787	50.35170057579012	45.00000025534055	0	0	89.99666975728356	-119.984353331186	-89.99618628504724	9.088091628497283	45.00000025534055	0	0
153.05	43.52337355111248	-12.85296800999919	-239.151506649094	0	0.9399999999999999	0	-951.0482650529256	20.74102718664399	-1588.244222864402	-110.6991638681482	-1.932064888703929	73.62967807401039	0	0	2.322552631411284	-25.61438245247692	2737.680064285849	61.79319508315981	1.07849470952831	-9.119350351704886	0	0	89.99123218093493	89.99777851721178	89.99123275747611	89.99638250044279	89.99242564150374	89.99638247969249	51.11751983916751	45.00000025534055	0	0	89.99666819283199	-119.9848001219656	-89.99618827681753	9.806308129199854	45.00000025534055	0	0
153.075	44.08145895563058	-13.38511691733699	-238.9591246550119	0	0.9399999999999999	0	-949.7120165641987	20.73578550453084	-1588.203283457585	-111.2086624015938	-1.940957315646636	73.81874202989415	0	0	0.6103002209911532	-27.95653863532108	2739.509706098994	62.32061635034591	1.087699947185748	-12.05702990132896	0	0	89.99140840283317	89.99777677506739	89.99140892652946	89.99637189332292	89.99256989422506	89.99637187179428	51.82036201624213	45.00000025534055	0	0	89.99666567165579	-119.9851978964583	-89.99619740917117	10.66240688174731	45.00000025534055	0	0
153.1	44.61840589588141	-14.02019476440772	-238.865788953617	0	0.9399999999999999	0	-945.5668052913546	23.71233991048818	-1587.078303780072	-114.8182118807884	-2.003955838572229	76.459595975212	0	0	-0.4849888656807293	-30.73950593000243	2739.3386679596	62.27615159207593	1.086923890752834	-12.62757979536472	0	0	89.99166490501463	89.99777575686154	89.99166516157301	89.99636739212772	89.9927264244336	89.99636737183836	52.59138830918677	45.00000025534055	0	0	89.99667027035999	-119.9856538029849	-89.99621836380469	11.5505917835975	45.00000025534055	0	0
